<svg width="13" height="8" viewBox="0 0 13 8" fill="none" xmlns="http://www.w3.org/2000/svg">
<g id="icons">
<g id="ui-gambling-website-lined-icnos-casinoshunter">
<g id="square-filled">
<path id="right-arrow" d="M8.88563 0.0888796L12.6163 3.28889L12.6373 3.30549C12.701 3.36019 12.7354 3.43057 12.7403 3.50215V3.53998C12.7354 3.61157 12.701 3.68195 12.6373 3.73664L12.6189 3.75008L8.88563 6.95325C8.7475 7.07176 8.52354 7.07176 8.38541 6.95325C8.24728 6.83475 8.24728 6.64261 8.38541 6.52411L11.5733 3.78862L0.353707 3.78886C0.158359 3.78886 0 3.653 0 3.48541C0 3.31781 0.158359 3.18195 0.353707 3.18195L11.4902 3.18171L8.38541 0.518028C8.24728 0.399522 8.24728 0.207386 8.38541 0.0888796C8.52354 -0.0296265 8.7475 -0.0296265 8.88563 0.0888796ZM12.4272 3.48515L8.63552 6.73868L12.3871 3.52113L12.3872 3.51996L12.3662 3.50349L12.3449 3.48515H12.4272Z" fill="#202020"/>
</g>
</g>
</g>
</svg>
