<svg width="16" height="16" viewBox="0 0 16 16" fill="none" xmlns="http://www.w3.org/2000/svg">
<g id="instagram 1" clip-path="url(#clip0_1_1104)">
<path id="Vector" d="M11.275 0.4375H3.825C1.7 0.4375 0 2.1375 0 4.2625V11.7375C0 13.8375 1.725 15.5625 3.825 15.5625H11.3C13.4 15.5625 15.125 13.8375 15.125 11.7375V4.2625C15.125 2.1375 13.4 0.4375 11.275 0.4375ZM14 11.7125C14 13.2125 12.8 14.4125 11.3 14.4125H3.825C2.325 14.4125 1.125 13.2125 1.125 11.7125V4.2625C1.125 2.7625 2.35 1.5625 3.825 1.5625H11.275C12.775 1.5625 13.975 2.7875 13.975 4.2625V11.7125H14Z" fill="#202020"/>
<path id="Vector_2" d="M7.56279 4.59668C5.6958 4.59668 4.15967 6.10918 4.15967 7.9998C4.15967 9.8668 5.67217 11.4029 7.56279 11.4029C9.42979 11.4029 10.9423 9.89043 10.9423 7.9998C10.9423 6.13281 9.42979 4.59668 7.56279 4.59668ZM7.56279 10.3395C6.28662 10.3395 5.22314 9.29961 5.22314 7.9998C5.22314 6.72363 6.26299 5.66016 7.56279 5.66016C8.83897 5.66016 9.87881 6.7 9.87881 7.9998C9.87881 9.27598 8.83897 10.3395 7.56279 10.3395Z" fill="#202020"/>
<path id="Vector_3" d="M11.1074 3.17871C10.6348 3.17871 10.2803 3.55684 10.2803 4.00586C10.2803 4.45488 10.6584 4.83301 11.1074 4.83301C11.5564 4.83301 11.9346 4.45488 11.9346 4.00586C11.9346 3.55684 11.5801 3.17871 11.1074 3.17871Z" fill="#202020"/>
</g>
<defs>
<clipPath id="clip0_1_1104">
<rect width="15.125" height="15.125" fill="white" transform="translate(0 0.4375)"/>
</clipPath>
</defs>
</svg>
