<svg width="27" height="26" viewBox="0 0 27 26" fill="none" xmlns="http://www.w3.org/2000/svg">
<g id="right-arrow-svgrepo-com 2" clip-path="url(#clip0_144_112)">
<g id="icons">
<g id="ui-gambling-website-lined-icnos-casinoshunter">
<g id="square-filled">
<path id="right-arrow" d="M18.6336 4.90399L26.2471 12.4522L26.2898 12.4914C26.4199 12.6204 26.49 12.7864 26.5 12.9553V13.0445C26.49 13.2134 26.4199 13.3794 26.2898 13.5084L26.2524 13.5401L18.6336 21.0958C18.3517 21.3753 17.8946 21.3753 17.6127 21.0958C17.3308 20.8163 17.3308 20.363 17.6127 20.0835L24.1186 13.631L1.22184 13.6316C0.823176 13.6316 0.5 13.3111 0.5 12.9158C0.5 12.5205 0.823176 12.2 1.22184 12.2L23.949 12.1994L17.6127 5.91627C17.3308 5.63674 17.3308 5.18352 17.6127 4.90399C17.8946 4.62445 18.3517 4.62445 18.6336 4.90399ZM25.8611 12.9152L18.1231 20.5897L25.7793 13L25.7794 12.9973L25.7367 12.9584L25.6931 12.9152H25.8611Z" fill="#252528"/>
</g>
</g>
</g>
</g>
<defs>
<clipPath id="clip0_144_112">
<rect width="26" height="26" fill="white" transform="translate(0.5)"/>
</clipPath>
</defs>
</svg>
