<svg width="17" height="16" viewBox="0 0 17 16" fill="none" xmlns="http://www.w3.org/2000/svg">
<g id="youtube 1" clip-path="url(#clip0_1_1108)">
<path id="Vector" d="M15.55 4.27471C15.375 3.59971 14.85 3.07471 14.175 2.89971C12.975 2.57471 8.125 2.57471 8.125 2.57471C8.125 2.57471 3.275 2.57471 2.075 2.89971C1.4 3.07471 0.875 3.59971 0.7 4.27471C0.375 5.49971 0.375 7.99971 0.375 7.99971C0.375 7.99971 0.375 10.5247 0.7 11.7247C0.875 12.3997 1.4 12.9247 2.075 13.0997C3.275 13.4247 8.125 13.4247 8.125 13.4247C8.125 13.4247 12.975 13.4247 14.175 13.0997C14.85 12.9247 15.375 12.3997 15.55 11.7247C15.875 10.5247 15.875 7.99971 15.875 7.99971C15.875 7.99971 15.875 5.49971 15.55 4.27471ZM6.575 10.3247V5.67471L10.6 7.99971L6.575 10.3247Z" fill="#202020"/>
</g>
<defs>
<clipPath id="clip0_1_1108">
<rect width="16" height="16" fill="white" transform="translate(0.125)"/>
</clipPath>
</defs>
</svg>
