<svg width="48" height="48" viewBox="0 0 48 48" fill="none" xmlns="http://www.w3.org/2000/svg">
<g id="Frame">
<path id="Vector" d="M5.9836 42C4.8881 42 4 41.1102 4 40.0132V7.9868C4 6.88952 4.91062 6 5.9836 6H42.0164C43.112 6 44 6.8899 44 7.9868V40.0132C44 41.1104 43.0894 42 42.0164 42H5.9836ZM40 30V10H8V38L28 18L40 30ZM40 35.6568L28 23.6568L13.6569 38H40V35.6568ZM16 22C13.7909 22 12 20.2092 12 18C12 15.7909 13.7909 14 16 14C18.2091 14 20 15.7909 20 18C20 20.2092 18.2091 22 16 22Z" fill="white"/>
</g>
</svg>
